<svg width="20" height="24" viewBox="0 0 20 24" fill="none" xmlns="http://www.w3.org/2000/svg">
<path d="M10 -0.00390625C12.6522 -0.00390625 15.1959 1.04944 17.0713 2.9248C18.9467 4.80017 20 7.34393 20 9.99609C20 13.898 17.5154 17.3916 15.2256 19.8086C14.0603 21.0386 12.8988 22.0391 12.0293 22.7314C11.594 23.0781 11.2299 23.3494 10.9727 23.5352C10.8442 23.6279 10.7419 23.6998 10.6709 23.749C10.6355 23.7735 10.6073 23.7924 10.5879 23.8057C10.5782 23.8123 10.57 23.8176 10.5645 23.8213C10.5618 23.8231 10.5593 23.8251 10.5576 23.8262L10.5557 23.8271V23.8281C10.5554 23.8283 10.5547 23.8281 10 22.9961L10.5547 23.8281C10.2188 24.0521 9.78121 24.0521 9.44531 23.8281L10 22.9961C9.4453 23.8281 9.44462 23.8283 9.44434 23.8281V23.8271L9.44238 23.8262C9.44074 23.8251 9.43823 23.8231 9.43555 23.8213C9.43003 23.8176 9.42185 23.8123 9.41211 23.8057C9.39265 23.7924 9.36447 23.7735 9.3291 23.749C9.25809 23.6998 9.15581 23.6279 9.02734 23.5352C8.77012 23.3494 8.40604 23.0781 7.9707 22.7314C7.10124 22.0391 5.93969 21.0386 4.77441 19.8086C2.48463 17.3916 0 13.898 0 9.99609C3.95203e-08 7.34393 1.05335 4.80017 2.92871 2.9248C4.80407 1.04944 7.34784 -0.00390625 10 -0.00390625ZM10 1.99609C7.87827 1.99609 5.84306 2.83858 4.34277 4.33887C2.84248 5.83916 2 7.87436 2 9.99609C2 13.0941 4.01539 16.1006 6.22559 18.4336C7.31025 19.5785 8.39879 20.5156 9.2168 21.167C9.52072 21.409 9.78721 21.6093 10 21.7666C10.2128 21.6093 10.4793 21.409 10.7832 21.167C11.6012 20.5156 12.6898 19.5785 13.7744 18.4336C15.9846 16.1006 18 13.0941 18 9.99609C18 7.87436 17.1575 5.83916 15.6572 4.33887C14.1569 2.83858 12.1217 1.99609 10 1.99609ZM10 5.99609C12.2091 5.99609 14 7.78695 14 9.99609C14 12.2052 12.2091 13.9961 10 13.9961C7.79086 13.9961 6 12.2052 6 9.99609C6 7.78695 7.79086 5.99609 10 5.99609ZM10 7.99609C8.89543 7.99609 8 8.89152 8 9.99609C8 11.1007 8.89543 11.9961 10 11.9961C11.1046 11.9961 12 11.1007 12 9.99609C12 8.89152 11.1046 7.99609 10 7.99609Z" fill="#1E1E1E"/>
</svg>
