<?xml version="1.0" encoding="UTF-8"?>
<!DOCTYPE svg PUBLIC "-//W3C//DTD SVG 1.1//EN" "http://www.w3.org/Graphics/SVG/1.1/DTD/svg11.dtd">
<!-- Creator: CorelDRAW -->
<svg xmlns="http://www.w3.org/2000/svg" xml:space="preserve" width="100px" height="100px" version="1.1" style="shape-rendering:geometricPrecision; text-rendering:geometricPrecision; image-rendering:optimizeQuality; fill-rule:evenodd; clip-rule:evenodd"
viewBox="0 0 0.78 0.78"
 xmlns:xlink="http://www.w3.org/1999/xlink"
 xmlns:xodm="http://www.corel.com/coreldraw/odm/2003">
 <defs>
  <style type="text/css">
   <![CDATA[
    .fil0 {fill:white}
   ]]>
  </style>
 </defs>
 <g id="Слой_x0020_1">
  <metadata id="CorelCorpID_0Corel-Layer"/>
  <path class="fil0" d="M0.1 0l0.581 0c0.027,0 0.052,0.011 0.07,0.029 0.018,0.018 0.029,0.043 0.029,0.071l0 0.581c0,0.027 -0.011,0.052 -0.029,0.07 -0.018,0.018 -0.043,0.029 -0.07,0.029l-0.581 0c-0.028,0 -0.053,-0.011 -0.071,-0.029 -0.018,-0.018 -0.029,-0.043 -0.029,-0.07l0 -0.581c0,-0.028 0.011,-0.053 0.029,-0.071 0.018,-0.018 0.043,-0.029 0.071,-0.029zm0.29 0.006c0.001,0.053 0.012,0.104 0.031,0.15l0.035 0 0 0 0.041 0c0.024,0 0.046,0.002 0.064,0.008l0.001 0 0.001 0c0.019,0.007 0.036,0.017 0.051,0.031l0.001 0 0.001 0.001c0.014,0.015 0.024,0.032 0.03,0.052 0.006,0.018 0.008,0.04 0.008,0.065l0 0.029c0,0.009 0,0.019 -0.001,0.028 0.038,0.013 0.079,0.02 0.121,0.02l0 -0.29c0,-0.026 -0.01,-0.049 -0.027,-0.066 -0.017,-0.017 -0.041,-0.028 -0.066,-0.028l-0.291 0zm0.091 0.366l-0.228 0 0 -0.09 0.228 0c0.014,0 0.023,0.002 0.028,0.006 0.004,0.004 0.007,0.012 0.007,0.023l0 0.032c0,0.012 -0.003,0.02 -0.007,0.024 -0.005,0.004 -0.014,0.006 -0.028,0.006l0 -0.001zm0.016 -0.175l-0.341 0 0 0.387 0.097 0 0 -0.126 0.178 0 0.085 0.126 0.109 0 -0.094 -0.127c0.035,-0.005 0.05,-0.015 0.063,-0.033 0.013,-0.017 0.019,-0.045 0.019,-0.082l0 -0.029c0,-0.022 -0.002,-0.04 -0.006,-0.053 -0.004,-0.013 -0.011,-0.025 -0.021,-0.036 -0.011,-0.009 -0.022,-0.016 -0.036,-0.021 -0.014,-0.004 -0.032,-0.006 -0.053,-0.006l0 0z"/>
 </g>
</svg>
