<svg width="63" height="21" viewBox="0 0 63 21" fill="none" xmlns="http://www.w3.org/2000/svg">
<path d="M40.8994 0C42.8471 4.48641e-05 44.4116 0.425024 45.6289 0.867188L44.7412 5.00977C42.4782 3.96781 40.4801 4.04362 39.7568 4.13672C38.2942 4.3283 37.6284 5.07261 37.6123 5.77441C37.5622 8.07682 44.7178 8.36328 44.6963 13.5195C44.6784 17.5835 41.2055 20.2069 35.8955 20.207C33.6325 20.1838 31.4513 19.7104 30.2715 19.168L31.1865 14.8857C32.3628 15.4336 33.8385 16.1605 36.3789 16.1211C37.8343 16.0977 39.3918 15.5193 39.4062 14.209C39.4134 13.3514 38.7525 12.7371 36.7832 11.7793C34.8675 10.8429 32.3234 9.27442 32.3574 6.45996C32.3862 2.65731 35.9026 0 40.8994 0ZM8.72266 0.358398C9.81836 0.358398 10.8049 1.0874 11.0537 2.34961L13.1826 13.6592L18.4443 0.358398H23.7568L15.5635 19.9004H10.2197L6.1875 4.30469C5.94405 3.34343 5.73276 2.99242 4.98828 2.58789C3.77265 1.92726 1.76707 1.30973 0 0.924805L0.120117 0.358398H8.72266ZM26.7979 19.9004H21.7422L25.9248 0.358398H30.9805L26.7979 19.9004ZM58.4863 0.358398L62.5684 19.9004H57.8916L57.2812 16.9824H50.7949L49.7402 19.9004H44.4316L52.0195 1.79102C52.383 0.92276 53.2006 0.358471 54.1709 0.358398H58.4863ZM52.25 12.9775H56.4434L54.9121 5.63867L52.25 12.9775Z" fill="white"/>
</svg>
