<svg width="135" height="40" viewBox="0 0 135 40" fill="none" xmlns="http://www.w3.org/2000/svg">
<path d="M130 0C131.325 1.06356e-05 132.597 0.527073 133.536 1.46484C134.473 2.4019 135 3.67452 135 5V34.9993C135 36.3255 134.473 37.5974 133.536 38.5352C132.597 39.4729 131.325 40 130 40H5.00005C3.67457 40 2.40189 39.4729 1.46486 38.5352C0.527178 37.5974 0 36.3255 0 34.9993V5C0 3.67455 0.527178 2.40189 1.46486 1.46484C2.40189 0.527103 3.67457 4.48897e-05 5.00005 0H130ZM5.00005 0.926339C4.4551 0.926361 3.92431 1.0329 3.43823 1.23465C2.95437 1.43499 2.5054 1.73362 2.11916 2.11914C1.73365 2.5047 1.43498 2.9536 1.23467 3.4375C1.03293 3.9243 0.926349 4.45505 0.926349 5V34.9993C0.926349 35.5443 1.03293 36.075 1.23467 36.5618C1.43498 37.0457 1.73364 37.4946 2.11916 37.8802C2.50541 38.2657 2.95436 38.5643 3.43823 38.7646C3.92431 38.9664 4.4551 39.0736 5.00005 39.0737H130C130.545 39.0737 131.076 38.9664 131.562 38.7653C132.049 38.5636 132.499 38.2649 132.883 37.8823C133.265 37.4988 133.564 37.0486 133.765 36.5618C133.966 36.075 134.074 35.5443 134.074 34.9993V5C134.074 4.45503 133.966 3.9243 133.765 3.4382C133.564 2.95068 133.265 2.50117 132.883 2.11775C132.499 1.73507 132.049 1.43643 131.562 1.23465C131.076 1.03289 130.545 0.926345 130 0.926339H5.00005ZM75.803 20.8224C76.8469 20.8225 77.6706 21.2735 78.1028 21.7725H78.1663V21.0812H79.9904V28.7416C79.9903 31.8895 78.0876 33.1835 75.8323 33.1836C73.7127 33.1836 72.4365 31.7922 71.9539 30.6613L73.6266 29.9805C73.9275 30.6762 74.6569 31.5039 75.8323 31.5039C77.2733 31.5038 78.1663 30.6269 78.1663 28.9962V28.3838H78.1028C77.6706 28.8979 76.8469 29.3533 75.803 29.3534C73.6115 29.3534 71.6079 27.4929 71.6079 25.1018C71.6079 22.6978 73.6114 20.8224 75.803 20.8224ZM119.064 21.0728L121.344 26.5074H121.409L123.615 21.0728H125.749L120.471 32.8941H118.467L120.42 28.6677L116.995 21.0728H119.064ZM24.648 22.4289L12.0837 29.3896C11.3441 29.7982 10.6937 29.7494 10.2952 29.3401L21.0151 18.8874L24.648 22.4289ZM45.4329 16.1014C47.5031 16.1014 48.9797 16.895 50.0891 17.9283L48.7791 19.2055C47.9857 18.476 46.9099 17.913 45.4329 17.9129C42.7007 17.9129 40.5606 20.0634 40.5606 22.7281C40.5607 25.392 42.7008 27.5419 45.4329 27.5419C47.2063 27.5418 48.2151 26.8461 48.8635 26.2193C49.3956 25.7009 49.7429 24.955 49.8729 23.9425H45.4329V22.1296H51.6823C51.7469 22.4526 51.7827 22.8404 51.7828 23.261C51.7828 24.6181 51.4006 26.2982 50.1749 27.493C48.9794 28.7065 47.4578 29.3534 45.4329 29.3534C41.6862 29.3534 38.5364 26.3807 38.5363 22.7281C38.5363 19.0746 41.6861 16.1014 45.4329 16.1014ZM56.8309 20.8224C59.2506 20.8225 61.2205 22.6151 61.2206 25.0879C61.2206 27.5414 59.2507 29.3532 56.8309 29.3534C54.4096 29.3534 52.4413 27.5415 52.4413 25.0879C52.4414 22.615 54.4097 20.8224 56.8309 20.8224ZM66.409 20.8224C68.8302 20.8225 70.8042 22.6151 70.8043 25.0879C70.8043 27.5414 68.8303 29.3533 66.409 29.3534C63.9927 29.3534 62.0193 27.5415 62.0193 25.0879C62.0195 22.615 63.9928 20.8224 66.409 20.8224ZM88.2933 20.8224C90.5638 20.8224 91.6787 22.5809 92.0399 23.5352L92.2422 24.0206L86.3904 26.3804C86.8378 27.2385 87.5366 27.673 88.5089 27.673C89.4889 27.673 90.1667 27.2035 90.6643 26.4934L92.1564 27.463C91.6787 28.1589 90.5191 29.3533 88.5089 29.3534C86.0237 29.3534 84.1694 27.4776 84.1694 25.0879C84.1695 22.5511 86.0437 20.8224 88.2933 20.8224ZM112.957 20.7987C115.161 20.7987 116.864 22.0424 116.864 24.2648V29.0744H115.011V28.1048H114.945C114.497 28.7653 113.785 29.3331 112.495 29.3331C110.806 29.3331 109.304 28.2511 109.304 26.5716C109.304 24.7348 111.173 23.7507 113.006 23.7507C113.92 23.7507 114.664 24.0402 115.011 24.2355V24.1044C114.995 23.0747 113.986 22.4923 112.99 22.4923C112.278 22.4924 111.605 22.7173 111.239 23.4138L109.536 22.7169C110.128 21.3951 111.57 20.7987 112.957 20.7987ZM83.241 16.5569V29.0939H81.3171V16.5569H83.241ZM101.046 16.5569C103.171 16.5569 105.267 18.0597 105.267 20.4492C105.267 22.8403 103.176 24.3436 101.046 24.3436H98.3639V29.0939H96.4456V16.5569H101.046ZM108.245 16.5569V29.0939H106.321V16.5569H108.245ZM20.3699 18.1201V18.3657L9.71202 28.7521L9.64993 28.6956C9.39792 28.4378 9.25097 28.0365 9.25093 27.5167V8.97321C9.25099 8.45348 9.39794 8.05212 9.64993 7.79367L9.71202 7.73368L20.3699 18.1201ZM56.8309 22.5014C55.504 22.5014 54.3589 23.5499 54.3588 25.0879C54.3588 26.6066 55.504 27.673 56.8309 27.673C58.1564 27.6728 59.2975 26.6065 59.2975 25.0879C59.2974 23.55 58.1563 22.5015 56.8309 22.5014ZM66.409 22.5014C65.0835 22.5014 63.9433 23.5499 63.9432 25.0879C63.9432 26.6066 65.0835 27.673 66.409 27.673C67.7345 27.6729 68.8805 26.6065 68.8805 25.0879C68.8804 23.55 67.7345 22.5015 66.409 22.5014ZM75.9669 22.5014C74.6407 22.5015 73.5317 23.599 73.5317 25.1018C73.5318 26.5917 74.6407 27.6729 75.9669 27.673C77.273 27.673 78.3036 26.5918 78.3037 25.1018C78.3037 23.599 77.273 22.5014 75.9669 22.5014ZM113.257 25.2644C112.313 25.2644 111.223 25.636 111.223 26.6064C111.223 27.3646 112.097 27.6687 112.724 27.6688C113.835 27.6688 114.86 26.846 115.011 25.685C114.498 25.4459 114.102 25.2644 113.257 25.2644ZM88.3596 22.4679C87.3845 22.4679 86.0235 23.3103 86.0737 24.9554L89.9863 23.3733C89.7701 22.8406 89.1227 22.468 88.3596 22.4679ZM98.3639 18.3008V22.5997H101.097C102.529 22.5997 103.346 21.42 103.346 20.4492C103.346 19.4598 102.529 18.3008 101.097 18.3008H98.3639ZM25.2925 14.7015L29.4995 17.0361C30.7001 17.6982 30.7001 18.7881 29.4995 19.4552L25.2925 21.7843L25.2088 21.8297L21.6597 18.3657V18.1201L25.213 14.6561L25.2925 14.7015ZM10.2952 7.14914C10.6937 6.74056 11.3441 6.69114 12.0837 7.09612L24.648 14.0562L21.0151 17.5984L10.2952 7.14914ZM43.5726 11.2444H44.3085V13.1948H43.5726V11.9231H39.9865V13.1948H39.2512V11.2444H39.3796C39.5462 11.2444 39.6795 11.2042 39.7793 11.123C39.8791 11.0419 39.9629 10.8808 40.0297 10.6383C40.1015 10.3905 40.1556 10.0255 40.1936 9.5452L40.4015 6.88756H43.5726V11.2444ZM47.4328 6.81641C47.9232 6.81643 48.3615 6.92597 48.747 7.14495C49.1324 7.36389 49.4322 7.67103 49.6469 8.06571C49.8659 8.45633 49.9754 8.90172 49.9754 9.4022C49.9754 9.90196 49.8659 10.3493 49.6469 10.745C49.4322 11.1348 49.1325 11.4424 48.747 11.6664C48.3615 11.8854 47.9232 11.995 47.4328 11.995C46.9374 11.995 46.4939 11.8854 46.104 11.6664C45.7184 11.4424 45.4162 11.1348 45.1965 10.745C44.9825 10.3493 44.8756 9.90195 44.8756 9.4022C44.8756 8.90172 44.9825 8.45633 45.1965 8.06571C45.4161 7.67093 45.7186 7.36393 46.104 7.14495C46.4939 6.92594 46.9374 6.81641 47.4328 6.81641ZM53.1883 6.81641C53.6974 6.81641 54.1501 6.94508 54.5458 7.20215C54.9457 7.45418 55.2314 7.79736 55.4031 8.23033L54.6741 8.34473C54.5406 8.07833 54.3433 7.87113 54.0812 7.72321C53.8242 7.57102 53.5331 7.49512 53.21 7.49512C52.8762 7.49516 52.5791 7.57564 52.3171 7.73786C52.06 7.89943 51.8574 8.12576 51.7102 8.41657C51.5674 8.70231 51.4954 9.03034 51.4954 9.4022C51.4954 9.77774 51.5673 10.1117 51.7102 10.4018C51.8574 10.6875 52.0621 10.9113 52.3241 11.0728C52.5862 11.2351 52.8864 11.3156 53.2246 11.3156C53.5577 11.3156 53.8528 11.2396 54.1098 11.0875C54.3719 10.9302 54.5718 10.7111 54.7097 10.4304L55.4386 10.5448C55.2577 10.9877 54.9646 11.3402 54.5604 11.6016C54.1555 11.8636 53.7007 11.995 53.196 11.995C52.7243 11.995 52.3006 11.8853 51.9244 11.6664C51.5481 11.4424 51.2525 11.1329 51.0385 10.738C50.8288 10.3424 50.7246 9.89693 50.7246 9.4022C50.7246 8.90691 50.8289 8.46391 51.0385 8.07338C51.2524 7.67855 51.5456 7.37092 51.9167 7.15193C52.2929 6.92794 52.7167 6.81646 53.1883 6.81641ZM78.1586 6.81641C78.649 6.81641 79.0879 6.92594 79.4735 7.14495C79.859 7.36394 80.1594 7.67088 80.3733 8.06571C80.5923 8.45633 80.7019 8.90172 80.7019 9.4022C80.7019 9.90193 80.5923 10.3494 80.3733 10.745C80.1593 11.1349 79.8591 11.4424 79.4735 11.6664C79.0879 11.8854 78.649 11.995 78.1586 11.995C77.6633 11.995 77.2203 11.8853 76.8305 11.6664C76.4449 11.4424 76.1412 11.1349 75.9229 10.745C75.709 10.3494 75.6014 9.90192 75.6014 9.4022C75.6014 8.90172 75.709 8.45633 75.9229 8.06571C76.1412 7.67078 76.4449 7.36396 76.8305 7.14495C77.2203 6.92597 77.6632 6.81641 78.1586 6.81641ZM59.9602 7.56627H58.203V11.9231H57.4671V7.56627H55.717V6.88756H59.9602V7.56627ZM62.5578 9.82352H62.6576L63.872 6.88756H64.6219L62.9436 10.9089C62.7914 11.2808 62.6144 11.5421 62.4148 11.695C62.2145 11.8472 61.9452 11.9231 61.6078 11.9231H60.9932L60.9367 11.2444H61.6078C61.7886 11.2444 61.9266 11.214 62.0221 11.1523C62.1169 11.0899 62.1961 10.9784 62.2579 10.8161L60.3431 6.88756H61.1579L62.5578 9.82352ZM69.3527 11.9231H68.6175V7.56627H66.1105V11.9231H65.3746V6.88756H69.3527V11.9231ZM71.331 9.03739H73.8742V6.88756H74.6101V11.9231H73.8742V9.7161H71.331V11.9231H70.595V6.88756H71.331V9.03739ZM85.4724 6.88756C85.7919 6.88756 86.0731 6.94697 86.3165 7.06613C86.5642 7.1803 86.7569 7.34267 86.8947 7.55162C87.0333 7.75626 87.1019 7.98986 87.1019 8.25195C87.1019 8.514 87.0353 8.74235 86.9017 8.93764C86.7732 9.12788 86.5923 9.26653 86.359 9.35198C86.6304 9.43313 86.8442 9.57832 87.0022 9.78795C87.1586 9.99255 87.2379 10.2401 87.2379 10.5301C87.2379 10.8016 87.1686 11.0444 87.0301 11.2591C86.8923 11.4686 86.6993 11.6324 86.4518 11.7515C86.2091 11.8664 85.928 11.9231 85.6091 11.9231H83.559V6.88756H85.4724ZM47.4328 7.49512C47.0853 7.49512 46.7758 7.57561 46.5044 7.73786C46.233 7.89943 46.0212 8.12576 45.8682 8.41657C45.7211 8.70233 45.6471 9.03031 45.6471 9.4022C45.6471 9.77774 45.721 10.1117 45.8682 10.4018C46.0212 10.6875 46.233 10.9113 46.5044 11.0728C46.7758 11.2351 47.0853 11.3156 47.4328 11.3156C47.7803 11.3155 48.0873 11.235 48.3536 11.0728C48.625 10.9113 48.8349 10.6875 48.9821 10.4018C49.135 10.1117 49.2116 9.77774 49.2116 9.4022C49.2116 9.03032 49.135 8.70232 48.9821 8.41657C48.8349 8.12576 48.625 7.89943 48.3536 7.73786C48.0873 7.57569 47.7802 7.49514 47.4328 7.49512ZM78.1586 7.49512C77.8111 7.49512 77.5016 7.57558 77.2309 7.73786C76.9587 7.89942 76.7469 8.12578 76.5947 8.41657C76.4468 8.70231 76.3736 9.03034 76.3736 9.4022C76.3736 9.77774 76.4468 10.1117 76.5947 10.4018C76.7469 10.6875 76.9588 10.9113 77.2309 11.0728C77.5016 11.2351 77.8111 11.3156 78.1586 11.3156C78.5061 11.3156 78.8136 11.2351 79.0808 11.0728C79.352 10.9113 79.5607 10.6874 79.7086 10.4018C79.8608 10.1117 79.9373 9.77774 79.9374 9.4022C79.9374 9.03029 79.8608 8.70234 79.7086 8.41657C79.5607 8.12583 79.3521 7.89942 79.0808 7.73786C78.8136 7.57558 78.5061 7.49512 78.1586 7.49512ZM84.2943 11.2737H85.6091C85.8662 11.2737 86.0761 11.2018 86.2376 11.0589C86.3999 10.9117 86.4804 10.721 86.4804 10.4869C86.4803 10.2588 86.3997 10.0738 86.2376 9.93094C86.0761 9.78805 85.8662 9.7161 85.6091 9.7161H84.2943V11.2737ZM40.9296 9.58008C40.8721 10.385 40.7243 10.9399 40.4866 11.2444H42.8374V7.56627H41.0795L40.9296 9.58008ZM84.2943 9.06599H85.4724C85.7352 9.06599 85.9477 8.99738 86.1093 8.85952C86.2715 8.71663 86.3513 8.53245 86.3513 8.30845C86.3513 8.08019 86.2715 7.89468 86.1093 7.75181C85.9477 7.60892 85.7352 7.53767 85.4724 7.53767H84.2943V9.06599Z" fill="white"/>
</svg>
